<?xml version="1.0" encoding="UTF-8"?>
<svg id="Layer_1" data-name="Layer 1" xmlns="http://www.w3.org/2000/svg" viewBox="0 0 16 16">
  <defs>
    <style>
      .cls-1 {
        fill: #fff;
        stroke-width: 0px;
      }
    </style>
  </defs>
  <path class="cls-1" d="M7.99,0C3.58,0,0,3.58,0,8s3.58,8,7.99,8,8.01-3.58,8.01-8S12.42,0,7.99,0ZM13.54,4.8h-2.36c-.25-.99-.62-1.95-1.1-2.85,1.46.5,2.69,1.51,3.46,2.85ZM8,1.63c.66.96,1.18,2.02,1.53,3.17h-3.06c.34-1.14.86-2.21,1.53-3.17ZM1.81,9.6c-.13-.51-.21-1.05-.21-1.6s.08-1.09.21-1.6h2.7c-.06.53-.11,1.06-.11,1.6s.05,1.07.11,1.6H1.81ZM2.46,11.2h2.36c.26,1,.62,1.96,1.1,2.85-1.46-.5-2.69-1.51-3.46-2.85ZM4.82,4.8h-2.36c.77-1.34,2-2.35,3.46-2.85-.48.9-.85,1.86-1.1,2.85ZM8,14.37c-.66-.96-1.18-2.02-1.53-3.17h3.06c-.34,1.14-.86,2.21-1.53,3.17ZM9.87,9.6h-3.74c-.07-.53-.13-1.06-.13-1.6s.06-1.08.13-1.6h3.74c.07.52.13,1.06.13,1.6s-.06,1.07-.13,1.6ZM10.07,14.05c.48-.89.85-1.85,1.1-2.85h2.36c-.78,1.33-2,2.35-3.46,2.85ZM11.49,9.6c.06-.53.11-1.06.11-1.6s-.05-1.07-.11-1.6h2.7c.13.51.21,1.05.21,1.6s-.08,1.09-.21,1.6h-2.7Z"/>
</svg>