<?xml version="1.0" encoding="UTF-8"?>
<svg id="Layer_1" data-name="Layer 1" xmlns="http://www.w3.org/2000/svg" viewBox="0 0 17.5 17.5">
  <defs>
    <style>
      .cls-1 {
        stroke-width: 0px;
      }
    </style>
  </defs>
  <path class="cls-1" d="m6.5,0c1.72,0,3.38.68,4.6,1.9,1.22,1.22,1.9,2.87,1.9,4.6,0,1.61-.59,3.09-1.56,4.23l.27.27h.79l5,5-1.5,1.5-5-5v-.79l-.27-.27c-1.18,1.01-2.68,1.56-4.23,1.56-1.72,0-3.38-.68-4.6-1.9-1.22-1.22-1.9-2.87-1.9-4.6S.68,3.12,1.9,1.9C3.12.68,4.78,0,6.5,0Zm0,2c-2.5,0-4.5,2-4.5,4.5s2,4.5,4.5,4.5,4.5-2,4.5-4.5-2-4.5-4.5-4.5Z"/>
</svg>