<?xml version="1.0" encoding="UTF-8"?>
<svg id="Layer_1" data-name="Layer 1" xmlns="http://www.w3.org/2000/svg" xmlns:xlink="http://www.w3.org/1999/xlink" viewBox="0 0 16 16">
  <defs>
    <style>
      .cls-1 {
        fill: none;
      }

      .cls-1, .cls-2 {
        stroke-width: 0px;
      }

      .cls-2 {
        fill: #20485c;
      }

      .cls-3 {
        clip-path: url(#clippath);
      }
    </style>
    <clipPath id="clippath">
      <rect class="cls-1" x="0" width="16" height="16"/>
    </clipPath>
  </defs>
  <g class="cls-3">
    <path class="cls-2" d="m15.66,12.37l-3.66-3.66c-.72-.72-1.8-.86-2.67-.43l-3.33-3.33v-1.94L2,0,0,2l3,4h1.94l3.33,3.33c-.43.87-.29,1.95.43,2.67l3.66,3.66c.46.46,1.19.46,1.65,0l1.65-1.65c.45-.46.45-1.19,0-1.65Zm-5.29-5.33c.88,0,1.72.34,2.34.97l.61.61c.49-.22.96-.52,1.37-.92,1.16-1.16,1.55-2.79,1.18-4.27-.07-.28-.42-.38-.63-.17l-2.32,2.33-2.12-.35-.35-2.12,2.33-2.33c.21-.21.11-.56-.18-.63-1.48-.37-3.11.03-4.27,1.18-.89.89-1.31,2.07-1.29,3.24l2.57,2.57c.25-.06.52-.09.77-.09Zm-3.25,2.56l-1.77-1.77L.59,12.59c-.78.78-.78,2.05,0,2.83.78.78,2.05.78,2.83,0l3.86-3.86c-.24-.62-.31-1.3-.16-1.96Zm-5.12,5.16c-.41,0-.75-.34-.75-.75s.33-.75.75-.75.75.33.75.75-.33.75-.75.75Z"/>
  </g>
</svg>